<svg width="253" height="43" viewBox="0 0 253 43" fill="none" xmlns="http://www.w3.org/2000/svg">
<path d="M16.9174 42.3572L13.932 26.1585L11.1124 26.4902L12.4393 42.3572H0.663429L1.935 3.65718H26.316L27.864 24.4999L22.3907 25.1633L29.0803 42.3572H16.9174ZM12.2181 11.2866L11.997 20.0217L17.7467 19.6347L18.4101 10.5679L12.2181 11.2866ZM58.0179 30.8577L58.8564 42.3572H30.4672L31.8447 0.432175H55.742L56.5805 11.9316H42.8051L42.9848 17.8011L53.8254 17.2621L54.4243 25.8866L43.2244 26.4257L43.3441 31.8759L58.0179 30.8577ZM87.2504 28.4805L71.7704 29.9732L72.8209 42.3572H59.7734L61.045 3.65718H85.426L87.2504 28.4805ZM76.4144 10.789L71.107 11.4525L71.3281 20.1876L78.6259 20.6852L76.4144 10.789ZM109.17 3.65718H120.891L118.127 42.3572H89.8756L88.6041 3.65718H101.43L100.048 31.687L109.17 32.5163V3.65718ZM148.611 26.3796L149.827 42.3572H122.24L123.511 3.65718H147.008L148.169 19.0266L141.424 23.0072L148.611 26.3796ZM140.152 10.8996L133.242 10.402V18.9713L139.323 18.529L140.152 10.8996ZM139.489 35.6676L140.208 27.9829H133.352V35.944L139.489 35.6676ZM163.231 30.9683L176.942 28.7016L175.946 42.3572H152.45L151.178 3.65718H165.497L163.231 30.9683ZM192.249 42.3572H177.635L179.012 0.432175H189.194L192.249 42.3572ZM218.702 30.0285L219.752 42.3572H193.547L194.819 3.65718H217.32L218.149 15.8753L206.207 13.111L206.705 31.7976L218.702 30.0285ZM220.65 3.65718H252.937L250.173 42.3572H242.046L241.548 33.7326L231.984 35.17L231.762 42.3572H221.922L220.65 3.65718ZM241.161 25.9926L240.387 12.3923L232.536 13.0005L232.205 25.882L241.161 25.9926Z" fill="white"/>
</svg>
